ffmpeg started on 2016-12-09 at 02:55:55
Report written to "Output/x264/results/ffmpeg/crowd_run_2160p50veryslow15000k.log"
Command line:
Tools/ffmpeg/ffmpeg -benchmark -y -i Input/y4m/crowd_run_2160p50.y4m -c:v libx264 -preset veryslow -b:v 15000k -an Output/x264/encoded/crowd_run_2160p50veryslow15000k.mkv
ffmpeg version N-82227-gdb23fde Copyright (c) 2000-2016 the FFmpeg developers
  built with gcc 5.4.0 (Ubuntu 5.4.0-6ubuntu1~16.04.2) 20160609
  configuration: --prefix=/home/jaroslav/ffmpeg_build --pkg-config-flags=--static --extra-cflags=-I/home/jaroslav/ffmpeg_build/include --extra-ldflags=-L/home/jaroslav/ffmpeg_build/lib --bindir=/home/jaroslav/bin --enable-gpl --enable-libass --enable-libfdk-aac --enable-libfreetype --enable-libmp3lame --enable-libopus --enable-libtheora --enable-libvorbis --enable-libvpx --enable-libx264 --enable-libx265 --enable-nvenc --enable-libmfx --enable-libxvid --enable-libgsm --enable-libopencore-amrnb --enable-version3 --enable-nonfree
  libavutil      55. 35.100 / 55. 35.100
  libavcodec     57. 66.101 / 57. 66.101
  libavformat    57. 57.100 / 57. 57.100
  libavdevice    57.  2.100 / 57.  2.100
  libavfilter     6. 66.100 /  6. 66.100
  libswscale      4.  3.100 /  4.  3.100
  libswresample   2.  4.100 /  2.  4.100
  libpostproc    54.  2.100 / 54.  2.100
Input #0, yuv4mpegpipe, from 'Input/y4m/crowd_run_2160p50.y4m':
  Duration: 00:00:10.00, start: 0.000000, bitrate: 4976642 kb/s
    Stream #0:0: Video: rawvideo (I420 / 0x30323449), yuv420p(progressive), 3840x2160, SAR 1:1 DAR 16:9, 50 fps, 50 tbr, 50 tbn, 50 tbc
[libx264 @ 0x410a1c0] using SAR=1/1
[libx264 @ 0x410a1c0] DPB size (16 frames, 518400 mbs) > level limit (5 frames, 184320 mbs)
[libx264 @ 0x410a1c0] using cpu capabilities: MMX2 SSE2Fast SSSE3 SSE4.2 AVX FMA3 AVX2 LZCNT BMI2
[libx264 @ 0x410a1c0] profile High, level 5.2
[libx264 @ 0x410a1c0] 264 - core 148 - H.264/MPEG-4 AVC codec - Copyleft 2003-2016 - http://www.videolan.org/x264.html - options: cabac=1 ref=16 deblock=1:0:0 analyse=0x3:0x133 me=umh subme=10 psy=1 psy_rd=1.00:0.00 mixed_ref=1 me_range=24 chroma_me=1 trellis=2 8x8dct=1 cqm=0 deadzone=21,11 fast_pskip=1 chroma_qp_offset=-2 threads=6 lookahead_threads=1 sliced_threads=0 nr=0 decimate=1 interlaced=0 bluray_compat=0 constrained_intra=0 bframes=8 b_pyramid=2 b_adapt=2 b_bias=0 direct=3 weightb=1 open_gop=0 weightp=2 keyint=250 keyint_min=25 scenecut=40 intra_refresh=0 rc_lookahead=60 rc=abr mbtree=1 bitrate=15000 ratetol=1.0 qcomp=0.60 qpmin=0 qpmax=69 qpstep=4 ip_ratio=1.40 aq=1:1.00
Output #0, matroska, to 'Output/x264/encoded/crowd_run_2160p50veryslow15000k.mkv':
  Metadata:
    encoder         : Lavf57.57.100
    Stream #0:0: Video: h264 (libx264) (H264 / 0x34363248), yuv420p, 3840x2160 [SAR 1:1 DAR 16:9], q=-1--1, 15000 kb/s, 50 fps, 1k tbn, 50 tbc
    Metadata:
      encoder         : Lavc57.66.101 libx264
    Side data:
      cpb: bitrate max/min/avg: 0/0/15000000 buffer size: 0 vbv_delay: -1
Stream mapping:
  Stream #0:0 -> #0:0 (rawvideo (native) -> h264 (libx264))
Press [q] to stop, [?] for help
frame=    7 fps=0.0 q=0.0 size=       0kB time=00:00:00.00 bitrate=N/A speed=   0x    frame=   22 fps= 17 q=0.0 size=       0kB time=00:00:00.00 bitrate=N/A speed=   0x    frame=   34 fps= 19 q=0.0 size=       0kB time=00:00:00.00 bitrate=N/A speed=   0x    frame=   43 fps= 19 q=0.0 size=       0kB time=00:00:00.00 bitrate=N/A speed=   0x    frame=   52 fps= 18 q=0.0 size=       0kB time=00:00:00.00 bitrate=N/A speed=   0x    frame=   61 fps= 18 q=0.0 size=       0kB time=00:00:00.00 bitrate=N/A speed=   0x    frame=   70 fps= 18 q=0.0 size=       0kB time=00:00:00.00 bitrate=N/A speed=   0x    frame=   72 fps=6.5 q=0.0 size=       0kB time=00:00:00.00 bitrate=N/A speed=   0x    frame=   77 fps=5.4 q=39.0 size=       1kB time=-00:00:00.01 bitrate=N/A speed=N/A    frame=   78 fps=4.9 q=35.0 size=       1kB time=00:00:00.00 bitrate=5888.0kbits/s speed=6.33e-05x    frame=   80 fps=4.8 q=37.0 size=       1kB time=00:00:00.04 bitrate= 143.6kbits/s speed=0.00248x    frame=   84 fps=4.5 q=45.0 size=       1kB time=00:00:00.12 bitrate=  48.7kbits/s speed=0.00653x    frame=   88 fps=4.5 q=48.0 size=       1kB time=00:00:00.20 bitrate=  29.3kbits/s speed=0.0103x    frame=   90 fps=4.3 q=48.0 size=       1kB time=00:00:00.24 bitrate=  24.4kbits/s speed=0.0115x    frame=   91 fps=4.2 q=48.0 size=       1kB time=00:00:00.26 bitrate=  22.6kbits/s speed=0.0121x    frame=   93 fps=4.2 q=46.0 size=       1kB time=00:00:00.30 bitrate=  19.6kbits/s speed=0.0134x    frame=   95 fps=3.9 q=47.0 size=       1kB time=00:00:00.34 bitrate=  17.3kbits/s speed=0.0141x    frame=   97 fps=3.9 q=46.0 size=       1kB time=00:00:00.38 bitrate=  15.5kbits/s speed=0.0152x    frame=   99 fps=3.7 q=46.0 size=       1kB time=00:00:00.42 bitrate=  14.0kbits/s speed=0.0158x    frame=  101 fps=3.6 q=45.0 size=       1kB time=00:00:00.46 bitrate=  12.8kbits/s speed=0.0166x    frame=  103 fps=3.4 q=46.0 size=       1kB time=00:00:00.50 bitrate=  11.8kbits/s speed=0.0166x    frame=  105 fps=3.4 q=45.0 size=       1kB time=00:00:00.54 bitrate=  10.9kbits/s speed=0.0174x    frame=  107 fps=3.2 q=45.0 size=       1kB time=00:00:00.58 bitrate=  10.1kbits/s speed=0.0173x    frame=  108 fps=3.2 q=45.0 size=       1kB time=00:00:00.60 bitrate=   9.8kbits/s speed=0.0176x    frame=  111 fps=3.0 q=45.0 size=       1kB time=00:00:00.66 bitrate=   8.9kbits/s speed=0.0178x    frame=  112 fps=3.0 q=45.0 size=       1kB time=00:00:00.68 bitrate=   8.6kbits/s speed=0.018x    frame=  115 fps=2.8 q=45.0 size=       1kB time=00:00:00.74 bitrate=   7.9kbits/s speed=0.0182x    frame=  116 fps=2.8 q=45.0 size=       1kB time=00:00:00.76 bitrate=   7.7kbits/s speed=0.0184x    frame=  117 fps=2.8 q=44.0 size=       1kB time=00:00:00.78 bitrate=   7.5kbits/s speed=0.0186x    frame=  119 fps=2.8 q=44.0 size=       1kB time=00:00:00.82 bitrate=   7.2kbits/s speed=0.0193x    frame=  120 fps=2.7 q=44.0 size=       1kB time=00:00:00.84 bitrate=   7.0kbits/s speed=0.019x    frame=  121 fps=2.7 q=44.0 size=       1kB time=00:00:00.86 bitrate=   6.8kbits/s speed=0.0189x    frame=  124 fps=2.6 q=44.0 size=       1kB time=00:00:00.92 bitrate=   6.4kbits/s speed=0.0191x    frame=  125 fps=2.6 q=44.0 size=       1kB time=00:00:00.94 bitrate=   6.3kbits/s speed=0.0193x    frame=  126 fps=2.5 q=44.0 size=       1kB time=00:00:00.96 bitrate=   6.1kbits/s speed=0.0194x    frame=  128 fps=2.4 q=44.0 size=       1kB time=00:00:01.00 bitrate=   5.9kbits/s speed=0.0191x    frame=  129 fps=2.4 q=44.0 size=       1kB time=00:00:01.02 bitrate=   5.8kbits/s speed=0.0193x    frame=  130 fps=2.4 q=44.0 size=       1kB time=00:00:01.04 bitrate=   5.7kbits/s speed=0.0194x    frame=  133 fps=2.4 q=44.0 size=       1kB time=00:00:01.10 bitrate=   5.3kbits/s speed=0.0198x    frame=  134 fps=2.3 q=44.0 size=       1kB time=00:00:01.12 bitrate=   5.3kbits/s speed=0.0195x    frame=  135 fps=2.3 q=43.0 size=       1kB time=00:00:01.14 bitrate=   5.2kbits/s speed=0.0197x    frame=  137 fps=2.3 q=44.0 size=       1kB time=00:00:01.18 bitrate=   5.0kbits/s speed=0.0199x    frame=  138 fps=2.3 q=43.0 size=       1kB time=00:00:01.20 bitrate=   4.9kbits/s speed=0.0199x    frame=  140 fps=2.3 q=43.0 size=       1kB time=00:00:01.24 bitrate=   4.7kbits/s speed=0.0204x    frame=  141 fps=2.2 q=43.0 size=       1kB time=00:00:01.26 bitrate=   4.7kbits/s speed=0.0198x    frame=  142 fps=2.2 q=43.0 size=       1kB time=00:00:01.28 bitrate=   4.6kbits/s speed=0.0198x    frame=  143 fps=2.2 q=43.0 size=       1kB time=00:00:01.30 bitrate=   4.5kbits/s speed=0.0199x    frame=  145 fps=2.2 q=43.0 size=       1kB time=00:00:01.34 bitrate=   4.4kbits/s speed=0.0201x    frame=  146 fps=2.1 q=43.0 size=       1kB time=00:00:01.36 bitrate=   4.3kbits/s speed=0.02x    frame=  147 fps=2.1 q=43.0 size=       1kB time=00:00:01.38 bitrate=   4.3kbits/s speed=0.0201x    frame=  149 fps=2.1 q=43.0 size=       1kB time=00:00:01.42 bitrate=   4.1kbits/s speed=0.0203x    frame=  150 fps=2.1 q=43.0 size=       1kB time=00:00:01.44 bitrate=   4.1kbits/s speed=0.0198x    frame=  151 fps=2.1 q=43.0 size=       1kB time=00:00:01.46 bitrate=   4.0kbits/s speed=0.0199x    frame=  152 fps=2.1 q=43.0 size=       1kB time=00:00:01.48 bitrate=   4.0kbits/s speed=0.02x    frame=  156 fps=2.0 q=43.0 size=       1kB time=00:00:01.56 bitrate=   3.8kbits/s speed=0.02x    frame=  157 fps=2.0 q=43.0 size=       1kB time=00:00:01.58 bitrate=   3.7kbits/s speed=0.0201x    frame=  158 fps=2.0 q=43.0 size=       1kB time=00:00:01.60 bitrate=   3.7kbits/s speed=0.0202x    frame=  160 fps=2.0 q=43.0 size=       1kB time=00:00:01.64 bitrate=   3.6kbits/s speed=0.0204x    frame=  161 fps=2.0 q=43.0 size=       1kB time=00:00:01.66 bitrate=   3.5kbits/s speed=0.0205x    frame=  162 fps=2.0 q=43.0 size=       1kB time=00:00:01.68 bitrate=   3.5kbits/s speed=0.0206x    frame=  163 fps=2.0 q=43.0 size=       1kB time=00:00:01.70 bitrate=   3.5kbits/s speed=0.0207x    frame=  164 fps=1.9 q=43.0 size=       1kB time=00:00:01.72 bitrate=   3.4kbits/s speed=0.0202x    frame=  165 fps=1.9 q=43.0 size=       1kB time=00:00:01.74 bitrate=   3.4kbits/s speed=0.0202x    frame=  166 fps=1.9 q=42.0 size=       1kB time=00:00:01.76 bitrate=   3.3kbits/s speed=0.0203x    frame=  168 fps=1.9 q=43.0 size=       1kB time=00:00:01.80 bitrate=   3.3kbits/s speed=0.0206x    frame=  169 fps=1.9 q=43.0 size=       1kB time=00:00:01.82 bitrate=   3.2kbits/s speed=0.0206x    frame=  170 fps=1.9 q=42.0 size=       1kB time=00:00:01.84 bitrate=   3.2kbits/s speed=0.0206x    frame=  172 fps=1.8 q=42.0 size=       1kB time=00:00:01.88 bitrate=   3.1kbits/s speed=0.0202x    frame=  173 fps=1.8 q=42.0 size=       1kB time=00:00:01.90 bitrate=   3.1kbits/s speed=0.0203x    frame=  174 fps=1.8 q=42.0 size=       1kB time=00:00:01.92 bitrate=   3.1kbits/s speed=0.0204x    frame=  178 fps=1.8 q=42.0 size=       1kB time=00:00:02.00 bitrate=   2.9kbits/s speed=0.0204x    frame=  179 fps=1.8 q=42.0 size=       1kB time=00:00:02.02 bitrate=   2.9kbits/s speed=0.0204x    frame=  180 fps=1.8 q=42.0 size=       1kB time=00:00:02.04 bitrate=   2.9kbits/s speed=0.0204x    frame=  183 fps=1.8 q=42.0 size=       1kB time=00:00:02.10 bitrate=   2.8kbits/s speed=0.0208x    frame=  184 fps=1.8 q=42.0 size=       1kB time=00:00:02.12 bitrate=   2.8kbits/s speed=0.0207x    frame=  185 fps=1.8 q=42.0 size=       1kB time=00:00:02.14 bitrate=   2.8kbits/s speed=0.0208x    frame=  186 fps=1.8 q=42.0 size=       1kB time=00:00:02.16 bitrate=   2.7kbits/s speed=0.0205x    frame=  187 fps=1.8 q=42.0 size=       1kB time=00:00:02.18 bitrate=   2.7kbits/s speed=0.0205x    frame=  188 fps=1.8 q=42.0 size=       1kB time=00:00:02.20 bitrate=   2.7kbits/s speed=0.0205x    frame=  191 fps=1.7 q=42.0 size=       1kB time=00:00:02.26 bitrate=   2.6kbits/s speed=0.0206x    frame=  192 fps=1.7 q=42.0 size=       1kB time=00:00:02.28 bitrate=   2.6kbits/s speed=0.0205x    frame=  193 fps=1.7 q=42.0 size=       1kB time=00:00:02.30 bitrate=   2.6kbits/s speed=0.0205x    frame=  196 fps=1.7 q=42.0 size=       1kB time=00:00:02.36 bitrate=   2.5kbits/s speed=0.0206x    frame=  197 fps=1.7 q=42.0 size=       1kB time=00:00:02.38 bitrate=   2.5kbits/s speed=0.0206x    frame=  198 fps=1.7 q=42.0 size=       1kB time=00:00:02.40 bitrate=   2.5kbits/s speed=0.0207x    frame=  200 fps=1.7 q=42.0 size=       1kB time=00:00:02.44 bitrate=   2.4kbits/s speed=0.0209x    frame=  201 fps=1.7 q=42.0 size=       1kB time=00:00:02.46 bitrate=   2.4kbits/s speed=0.0206x    frame=  202 fps=1.7 q=42.0 size=       1kB time=00:00:02.48 bitrate=   2.4kbits/s speed=0.0206x    frame=  203 fps=1.7 q=42.0 size=       1kB time=00:00:02.50 bitrate=   2.4kbits/s speed=0.0207x    frame=  205 fps=1.7 q=42.0 size=    5173kB time=00:00:02.54 bitrate=16677.4kbits/s speed=0.0207x    frame=  206 fps=1.7 q=42.0 size=    5173kB time=00:00:02.56 bitrate=16547.1kbits/s speed=0.0208x    frame=  208 fps=1.7 q=42.0 size=    5173kB time=00:00:02.60 bitrate=16292.7kbits/s speed=0.0208x    frame=  210 fps=1.6 q=42.0 size=    5173kB time=00:00:02.64 bitrate=16045.9kbits/s speed=0.0206x    frame=  211 fps=1.6 q=42.0 size=    5173kB time=00:00:02.66 bitrate=15925.3kbits/s speed=0.0207x    frame=  213 fps=1.6 q=42.0 size=    5173kB time=00:00:02.70 bitrate=15689.5kbits/s speed=0.0209x    frame=  214 fps=1.6 q=42.0 size=    5173kB time=00:00:02.72 bitrate=15574.1kbits/s speed=0.0208x    frame=  215 fps=1.6 q=42.0 size=    5173kB time=00:00:02.74 bitrate=15460.5kbits/s speed=0.0207x    frame=  216 fps=1.6 q=42.0 size=    5173kB time=00:00:02.76 bitrate=15348.5kbits/s speed=0.0207x    frame=  217 fps=1.6 q=42.0 size=    5173kB time=00:00:02.78 bitrate=15238.1kbits/s speed=0.0208x    frame=  219 fps=1.6 q=42.0 size=    5173kB time=00:00:02.82 bitrate=15022.1kbits/s speed=0.0207x    frame=  220 fps=1.6 q=42.0 size=    5173kB time=00:00:02.84 bitrate=14916.3kbits/s speed=0.0206x    frame=  221 fps=1.6 q=42.0 size=    5173kB time=00:00:02.86 bitrate=14812.0kbits/s speed=0.0207x    frame=  224 fps=1.6 q=42.0 size=    5173kB time=00:00:02.92 bitrate=14507.8kbits/s speed=0.0208x    frame=  225 fps=1.6 q=42.0 size=    5173kB time=00:00:02.94 bitrate=14409.1kbits/s speed=0.0207x    frame=  226 fps=1.6 q=42.0 size=    5173kB time=00:00:02.96 bitrate=14311.8kbits/s speed=0.0207x    frame=  227 fps=1.6 q=42.0 size=    5173kB time=00:00:02.98 bitrate=14215.8kbits/s speed=0.0208x    frame=  229 fps=1.6 q=42.0 size=    5173kB time=00:00:03.02 bitrate=14027.5kbits/s speed=0.0208x    frame=  230 fps=1.6 q=42.0 size=    5173kB time=00:00:03.04 bitrate=13935.3kbits/s speed=0.0207x    frame=  231 fps=1.6 q=42.0 size=    5173kB time=00:00:03.06 bitrate=13844.2kbits/s speed=0.0207x    frame=  234 fps=1.6 q=41.0 size=    5173kB time=00:00:03.12 bitrate=13578.1kbits/s speed=0.0207x    frame=  235 fps=1.6 q=41.0 size=    5173kB time=00:00:03.14 bitrate=13491.6kbits/s speed=0.0208x    frame=  236 fps=1.6 q=41.0 size=    5173kB time=00:00:03.16 bitrate=13406.3kbits/s speed=0.0208x    frame=  237 fps=1.6 q=41.0 size=    5173kB time=00:00:03.18 bitrate=13322.0kbits/s speed=0.0208x    frame=  238 fps=1.6 q=41.0 size=    5173kB time=00:00:03.20 bitrate=13238.7kbits/s speed=0.0209x    frame=  239 fps=1.5 q=41.0 size=    5173kB time=00:00:03.22 bitrate=13156.5kbits/s speed=0.0207x    frame=  240 fps=1.5 q=41.0 size=    5173kB time=00:00:03.24 bitrate=13075.4kbits/s speed=0.0206x    frame=  241 fps=1.5 q=41.0 size=    5173kB time=00:00:03.26 bitrate=12995.2kbits/s speed=0.0207x    frame=  245 fps=1.5 q=41.0 size=    5173kB time=00:00:03.34 bitrate=12684.0kbits/s speed=0.0206x    frame=  246 fps=1.5 q=41.0 size=    5173kB time=00:00:03.36 bitrate=12608.5kbits/s speed=0.0206x    frame=  247 fps=1.5 q=41.0 size=    5173kB time=00:00:03.38 bitrate=12533.9kbits/s speed=0.0207x    frame=  250 fps=1.5 q=41.0 size=    5173kB time=00:00:03.44 bitrate=12315.4kbits/s speed=0.0208x    frame=  251 fps=1.5 q=41.0 size=    5173kB time=00:00:03.46 bitrate=12244.2kbits/s speed=0.0206x    frame=  253 fps=1.5 q=41.0 size=    5173kB time=00:00:03.50 bitrate=12104.3kbits/s speed=0.0208x    frame=  256 fps=1.5 q=41.0 size=    5173kB time=00:00:03.56 bitrate=11900.4kbits/s speed=0.0208x    frame=  257 fps=1.5 q=41.0 size=    5173kB time=00:00:03.58 bitrate=11833.9kbits/s speed=0.0207x    frame=  258 fps=1.5 q=41.0 size=    5173kB time=00:00:03.60 bitrate=11768.2kbits/s speed=0.0207x    frame=  260 fps=1.5 q=41.0 size=    5173kB time=00:00:03.64 bitrate=11638.9kbits/s speed=0.0207x    frame=  261 fps=1.5 q=41.0 size=    5173kB time=00:00:03.66 bitrate=11575.3kbits/s speed=0.0208x    frame=  263 fps=1.5 q=41.0 size=    5173kB time=00:00:03.70 bitrate=11450.2kbits/s speed=0.0209x    frame=  264 fps=1.5 q=41.0 size=    5173kB time=00:00:03.72 bitrate=11388.7kbits/s speed=0.0206x    frame=  265 fps=1.5 q=41.0 size=    5173kB time=00:00:03.74 bitrate=11327.8kbits/s speed=0.0206x    frame=  266 fps=1.5 q=41.0 size=    5173kB time=00:00:03.76 bitrate=11267.5kbits/s speed=0.0207x    frame=  268 fps=1.5 q=41.0 size=    5173kB time=00:00:03.80 bitrate=11149.0kbits/s speed=0.0207x    frame=  269 fps=1.5 q=41.0 size=    5173kB time=00:00:03.82 bitrate=11090.6kbits/s speed=0.0207x    frame=  270 fps=1.5 q=41.0 size=    5173kB time=00:00:03.84 bitrate=11032.9kbits/s speed=0.0207x    frame=  271 fps=1.5 q=41.0 size=    5173kB time=00:00:03.86 bitrate=10975.7kbits/s speed=0.0208x    frame=  273 fps=1.4 q=41.0 size=    5173kB time=00:00:03.90 bitrate=10863.2kbits/s speed=0.0207x    frame=  274 fps=1.4 q=41.0 size=    5173kB time=00:00:03.92 bitrate=10807.8kbits/s speed=0.0207x    frame=  275 fps=1.4 q=41.0 size=    5173kB time=00:00:03.94 bitrate=10752.9kbits/s speed=0.0207x    frame=  277 fps=1.4 q=41.0 size=    5173kB time=00:00:03.98 bitrate=10644.9kbits/s speed=0.0206x    frame=  278 fps=1.4 q=41.0 size=    5173kB time=00:00:04.00 bitrate=10591.7kbits/s speed=0.0207x    frame=  280 fps=1.4 q=41.0 size=    5173kB time=00:00:04.04 bitrate=10486.8kbits/s speed=0.0208x    frame=  282 fps=1.4 q=41.0 size=    5173kB time=00:00:04.08 bitrate=10384.0kbits/s speed=0.0208x    frame=  283 fps=1.4 q=41.0 size=    5173kB time=00:00:04.10 bitrate=10333.4kbits/s speed=0.0207x    frame=  285 fps=1.4 q=41.0 size=    5173kB time=00:00:04.14 bitrate=10233.6kbits/s speed=0.0208x    frame=  286 fps=1.4 q=41.0 size=    5173kB time=00:00:04.16 bitrate=10184.4kbits/s speed=0.0207x    frame=  287 fps=1.4 q=41.0 size=    5173kB time=00:00:04.18 bitrate=10135.7kbits/s speed=0.0207x    frame=  289 fps=1.4 q=41.0 size=    5173kB time=00:00:04.22 bitrate=10039.6kbits/s speed=0.0208x    frame=  290 fps=1.4 q=41.0 size=    5173kB time=00:00:04.24 bitrate=9992.3kbits/s speed=0.0206x    frame=  291 fps=1.4 q=41.0 size=    5173kB time=00:00:04.26 bitrate=9945.4kbits/s speed=0.0206x    frame=  293 fps=1.4 q=41.0 size=    5173kB time=00:00:04.30 bitrate=9852.9kbits/s speed=0.0207x    frame=  294 fps=1.4 q=41.0 size=    5173kB time=00:00:04.32 bitrate=9807.3kbits/s speed=0.0207x    frame=  295 fps=1.4 q=41.0 size=    5173kB time=00:00:04.34 bitrate=9762.1kbits/s speed=0.0207x    frame=  296 fps=1.4 q=41.0 size=    5173kB time=00:00:04.36 bitrate=9717.3kbits/s speed=0.0207x    frame=  298 fps=1.4 q=41.0 size=    5173kB time=00:00:04.40 bitrate=9629.0kbits/s speed=0.0208x    frame=  299 fps=1.4 q=41.0 size=    5173kB time=00:00:04.42 bitrate=9585.4kbits/s speed=0.0207x    frame=  300 fps=1.4 q=41.0 size=    5173kB time=00:00:04.44 bitrate=9542.3kbits/s speed=0.0207x    frame=  301 fps=1.4 q=41.0 size=    5173kB time=00:00:04.46 bitrate=9499.5kbits/s speed=0.0207x    frame=  303 fps=1.4 q=41.0 size=    5173kB time=00:00:04.50 bitrate=9415.1kbits/s speed=0.0206x    frame=  304 fps=1.4 q=41.0 size=    5173kB time=00:00:04.52 bitrate=9373.4kbits/s speed=0.0207x    frame=  305 fps=1.4 q=41.0 size=    5173kB time=00:00:04.54 bitrate=9332.1kbits/s speed=0.0207x    frame=  307 fps=1.4 q=41.0 size=    5173kB time=00:00:04.58 bitrate=9250.6kbits/s speed=0.0206x    frame=  308 fps=1.4 q=41.0 size=    5173kB time=00:00:04.60 bitrate=9210.4kbits/s speed=0.0207x    frame=  310 fps=1.4 q=41.0 size=    5173kB time=00:00:04.64 bitrate=9131.1kbits/s speed=0.0208x    frame=  311 fps=1.4 q=41.0 size=    5173kB time=00:00:04.66 bitrate=9091.9kbits/s speed=0.0206x    frame=  312 fps=1.4 q=41.0 size=    5173kB time=00:00:04.68 bitrate=9053.0kbits/s speed=0.0207x    frame=  313 fps=1.4 q=41.0 size=    5173kB time=00:00:04.70 bitrate=9014.5kbits/s speed=0.0207x    frame=  314 fps=1.4 q=41.0 size=    5173kB time=00:00:04.72 bitrate=8976.3kbits/s speed=0.0207x    frame=  315 fps=1.4 q=41.0 size=    5173kB time=00:00:04.74 bitrate=8938.5kbits/s speed=0.0206x    frame=  316 fps=1.4 q=41.0 size=    5173kB time=00:00:04.76 bitrate=8900.9kbits/s speed=0.0207x    frame=  319 fps=1.4 q=41.0 size=    5173kB time=00:00:04.82 bitrate=8790.1kbits/s speed=0.0206x    frame=  320 fps=1.4 q=41.0 size=    5173kB time=00:00:04.84 bitrate=8753.8kbits/s speed=0.0206x    frame=  322 fps=1.4 q=41.0 size=    5173kB time=00:00:04.88 bitrate=8682.1kbits/s speed=0.0207x    frame=  325 fps=1.4 q=41.0 size=    5173kB time=00:00:04.94 bitrate=8576.6kbits/s speed=0.0208x    frame=  326 fps=1.4 q=41.0 size=    9276kB time=00:00:04.96 bitrate=15317.3kbits/s speed=0.0208x    frame=  332 fps=1.4 q=41.0 size=    9276kB time=00:00:05.08 bitrate=14955.6kbits/s speed=0.0211x    frame=  334 fps=1.4 q=41.0 size=    9276kB time=00:00:05.12 bitrate=14838.8kbits/s speed=0.0212x    frame=  336 fps=1.4 q=41.0 size=    9276kB time=00:00:05.16 bitrate=14723.8kbits/s speed=0.0213x    frame=  338 fps=1.4 q=41.0 size=    9276kB time=00:00:05.20 bitrate=14610.5kbits/s speed=0.0214x    frame=  340 fps=1.4 q=41.0 size=    9276kB time=00:00:05.24 bitrate=14499.0kbits/s speed=0.0215x    frame=  341 fps=1.4 q=41.0 size=    9276kB time=00:00:05.26 bitrate=14443.9kbits/s speed=0.0215x    frame=  342 fps=1.4 q=41.0 size=    9276kB time=00:00:05.28 bitrate=14389.2kbits/s speed=0.0215x    frame=  344 fps=1.4 q=41.0 size=    9276kB time=00:00:05.32 bitrate=14281.0kbits/s speed=0.0216x    frame=  345 fps=1.4 q=41.0 size=    9276kB time=00:00:05.34 bitrate=14227.5kbits/s speed=0.0215x    frame=  346 fps=1.4 q=41.0 size=    9276kB time=00:00:05.36 bitrate=14174.5kbits/s speed=0.0216x    frame=  347 fps=1.4 q=41.0 size=    9276kB time=00:00:05.38 bitrate=14121.8kbits/s speed=0.0216x    frame=  349 fps=1.4 q=41.0 size=    9276kB time=00:00:05.42 bitrate=14017.6kbits/s speed=0.0216x    frame=  351 fps=1.4 q=41.0 size=    9276kB time=00:00:05.46 bitrate=13914.9kbits/s speed=0.0216x    frame=  353 fps=1.4 q=41.0 size=    9276kB time=00:00:05.50 bitrate=13813.7kbits/s speed=0.0216x    frame=  354 fps=1.4 q=41.0 size=    9276kB time=00:00:05.52 bitrate=13763.7kbits/s speed=0.0216x    frame=  355 fps=1.4 q=41.0 size=    9276kB time=00:00:05.54 bitrate=13714.0kbits/s speed=0.0216x    frame=  357 fps=1.4 q=41.0 size=    9276kB time=00:00:05.58 bitrate=13615.7kbits/s speed=0.0216x    frame=  358 fps=1.4 q=41.0 size=    9276kB time=00:00:05.60 bitrate=13567.1kbits/s speed=0.0216x    frame=  359 fps=1.4 q=41.0 size=    9276kB time=00:00:05.62 bitrate=13518.8kbits/s speed=0.0216x    frame=  361 fps=1.4 q=41.0 size=    9276kB time=00:00:05.66 bitrate=13423.3kbits/s speed=0.0215x    frame=  362 fps=1.4 q=41.0 size=    9276kB time=00:00:05.68 bitrate=13376.1kbits/s speed=0.0215x    frame=  363 fps=1.4 q=41.0 size=    9276kB time=00:00:05.70 bitrate=13329.1kbits/s speed=0.0216x    frame=  365 fps=1.4 q=41.0 size=    9276kB time=00:00:05.74 bitrate=13236.3kbits/s speed=0.0216x    frame=  366 fps=1.4 q=41.0 size=    9276kB time=00:00:05.76 bitrate=13190.3kbits/s speed=0.0216x    frame=  368 fps=1.4 q=41.0 size=    9276kB time=00:00:05.80 bitrate=13099.4kbits/s speed=0.0216x    frame=  369 fps=1.4 q=41.0 size=    9276kB time=00:00:05.82 bitrate=13054.3kbits/s speed=0.0215x    frame=  370 fps=1.4 q=41.0 size=    9276kB time=00:00:05.84 bitrate=13009.6kbits/s speed=0.0215x    frame=  371 fps=1.4 q=41.0 size=    9276kB time=00:00:05.86 bitrate=12965.3kbits/s speed=0.0215x    frame=  373 fps=1.4 q=41.0 size=    9276kB time=00:00:05.90 bitrate=12877.4kbits/s speed=0.0215x    frame=  374 fps=1.4 q=41.0 size=    9276kB time=00:00:05.92 bitrate=12833.9kbits/s speed=0.0215x    frame=  376 fps=1.4 q=41.0 size=    9276kB time=00:00:05.96 bitrate=12747.8kbits/s speed=0.0216x    frame=  377 fps=1.4 q=41.0 size=    9276kB time=00:00:05.98 bitrate=12705.1kbits/s speed=0.0216x    frame=  378 fps=1.4 q=41.0 size=    9276kB time=00:00:06.00 bitrate=12662.8kbits/s speed=0.0215x    frame=  379 fps=1.4 q=41.0 size=    9276kB time=00:00:06.02 bitrate=12620.7kbits/s speed=0.0215x    frame=  380 fps=1.4 q=41.0 size=    9276kB time=00:00:06.04 bitrate=12578.9kbits/s speed=0.0215x    frame=  382 fps=1.4 q=41.0 size=    9276kB time=00:00:06.08 bitrate=12496.2kbits/s speed=0.0215x    frame=  383 fps=1.4 q=41.0 size=    9276kB time=00:00:06.10 bitrate=12455.2kbits/s speed=0.0215x    frame=  384 fps=1.4 q=41.0 size=    9276kB time=00:00:06.12 bitrate=12414.5kbits/s speed=0.0215x    frame=  386 fps=1.3 q=41.0 size=    9276kB time=00:00:06.16 bitrate=12333.9kbits/s speed=0.0215x    frame=  387 fps=1.3 q=41.0 size=    9276kB time=00:00:06.18 bitrate=12294.0kbits/s speed=0.0215x    frame=  388 fps=1.3 q=41.0 size=    9276kB time=00:00:06.20 bitrate=12254.4kbits/s speed=0.0215x    frame=  390 fps=1.3 q=41.0 size=    9276kB time=00:00:06.24 bitrate=12175.8kbits/s speed=0.0215x    frame=  391 fps=1.3 q=41.0 size=    9276kB time=00:00:06.26 bitrate=12136.9kbits/s speed=0.0215x    frame=  392 fps=1.3 q=41.0 size=    9276kB time=00:00:06.28 bitrate=12098.3kbits/s speed=0.0216x    frame=  393 fps=1.3 q=41.0 size=    9276kB time=00:00:06.30 bitrate=12059.9kbits/s speed=0.0216x    frame=  394 fps=1.3 q=41.0 size=    9276kB time=00:00:06.32 bitrate=12021.7kbits/s speed=0.0214x    frame=  395 fps=1.3 q=41.0 size=    9276kB time=00:00:06.34 bitrate=11983.8kbits/s speed=0.0214x    frame=  397 fps=1.3 q=41.0 size=    9276kB time=00:00:06.38 bitrate=11908.7kbits/s speed=0.0215x    frame=  398 fps=1.3 q=41.0 size=    9276kB time=00:00:06.40 bitrate=11871.5kbits/s speed=0.0215x    frame=  399 fps=1.3 q=41.0 size=    9276kB time=00:00:06.42 bitrate=11834.5kbits/s speed=0.0215x    frame=  400 fps=1.3 q=41.0 size=    9276kB time=00:00:06.44 bitrate=11797.8kbits/s speed=0.0215x    frame=  401 fps=1.3 q=41.0 size=    9276kB time=00:00:06.46 bitrate=11761.2kbits/s speed=0.0215x    frame=  402 fps=1.3 q=41.0 size=    9276kB time=00:00:06.48 bitrate=11724.9kbits/s speed=0.0214x    frame=  403 fps=1.3 q=41.0 size=    9276kB time=00:00:06.50 bitrate=11688.9kbits/s speed=0.0214x    frame=  404 fps=1.3 q=41.0 size=    9276kB time=00:00:06.52 bitrate=11653.0kbits/s speed=0.0214x    frame=  407 fps=1.3 q=41.0 size=    9276kB time=00:00:06.58 bitrate=11546.8kbits/s speed=0.0215x    frame=  408 fps=1.3 q=41.0 size=    9276kB time=00:00:06.60 bitrate=11511.8kbits/s speed=0.0214x    frame=  409 fps=1.3 q=41.0 size=    9276kB time=00:00:06.62 bitrate=11477.0kbits/s speed=0.0214x    frame=  411 fps=1.3 q=41.0 size=    9276kB time=00:00:06.66 bitrate=11408.1kbits/s speed=0.0214x    frame=  412 fps=1.3 q=41.0 size=    9276kB time=00:00:06.68 bitrate=11373.9kbits/s speed=0.0214x    frame=  414 fps=1.3 q=41.0 size=    9276kB time=00:00:06.72 bitrate=11306.3kbits/s speed=0.0215x    frame=  415 fps=1.3 q=41.0 size=    9276kB time=00:00:06.74 bitrate=11272.7kbits/s speed=0.0213x    frame=  416 fps=1.3 q=41.0 size=    9276kB time=00:00:06.76 bitrate=11239.4kbits/s speed=0.0214x    frame=  417 fps=1.3 q=41.0 size=    9276kB time=00:00:06.78 bitrate=11206.2kbits/s speed=0.0214x    frame=  420 fps=1.3 q=41.0 size=    9276kB time=00:00:06.84 bitrate=11107.9kbits/s speed=0.0214x    frame=  421 fps=1.3 q=41.0 size=    9276kB time=00:00:06.86 bitrate=11075.5kbits/s speed=0.0214x    frame=  424 fps=1.3 q=41.0 size=    9276kB time=00:00:06.92 bitrate=10979.5kbits/s speed=0.0213x    frame=  425 fps=1.3 q=41.0 size=    9276kB time=00:00:06.94 bitrate=10947.9kbits/s speed=0.0214x    frame=  428 fps=1.3 q=41.0 size=    9276kB time=00:00:07.00 bitrate=10854.1kbits/s speed=0.0213x    frame=  429 fps=1.3 q=41.0 size=    9276kB time=00:00:07.02 bitrate=10823.2kbits/s speed=0.0213x    frame=  430 fps=1.3 q=41.0 size=    9276kB time=00:00:07.04 bitrate=10792.4kbits/s speed=0.0213x    frame=  433 fps=1.3 q=41.0 size=    9276kB time=00:00:07.10 bitrate=10701.2kbits/s speed=0.0215x    frame=  434 fps=1.3 q=41.0 size=    9276kB time=00:00:07.12 bitrate=10671.2kbits/s speed=0.0213x    frame=  435 fps=1.3 q=41.0 size=    9276kB time=00:00:07.14 bitrate=10641.3kbits/s speed=0.0213x    frame=  437 fps=1.3 q=41.0 size=    9276kB time=00:00:07.18 bitrate=10582.0kbits/s speed=0.0213x    frame=  438 fps=1.3 q=41.0 size=    9276kB time=00:00:07.20 bitrate=10552.6kbits/s speed=0.0213x    frame=  439 fps=1.3 q=41.0 size=    9276kB time=00:00:07.22 bitrate=10523.4kbits/s speed=0.0214x    frame=  440 fps=1.3 q=41.0 size=    9276kB time=00:00:07.24 bitrate=10494.3kbits/s speed=0.0214x    frame=  441 fps=1.3 q=41.0 size=    9276kB time=00:00:07.26 bitrate=10465.4kbits/s speed=0.0213x    frame=  442 fps=1.3 q=41.0 size=    9276kB time=00:00:07.28 bitrate=10436.7kbits/s speed=0.0213x    frame=  443 fps=1.3 q=41.0 size=    9276kB time=00:00:07.30 bitrate=10408.1kbits/s speed=0.0213x    frame=  445 fps=1.3 q=41.0 size=    9276kB time=00:00:07.34 bitrate=10351.4kbits/s speed=0.0214x    frame=  446 fps=1.3 q=41.0 size=    9276kB time=00:00:07.36 bitrate=10323.2kbits/s speed=0.0213x    frame=  448 fps=1.3 q=41.0 size=    9276kB time=00:00:07.40 bitrate=10267.4kbits/s speed=0.0214x    frame=  449 fps=1.3 q=41.0 size=    9276kB time=00:00:07.42 bitrate=10239.8kbits/s speed=0.0213x    frame=  450 fps=1.3 q=41.0 size=    9276kB time=00:00:07.44 bitrate=10212.2kbits/s speed=0.0213x    frame=  451 fps=1.3 q=41.0 size=    9276kB time=00:00:07.46 bitrate=10184.9kbits/s speed=0.0213x    frame=  454 fps=1.3 q=41.0 size=    9276kB time=00:00:07.52 bitrate=10103.6kbits/s speed=0.0214x    frame=  455 fps=1.3 q=41.0 size=    9276kB time=00:00:07.54 bitrate=10076.8kbits/s speed=0.0213x    frame=  457 fps=1.3 q=41.0 size=    9276kB time=00:00:07.58 bitrate=10023.7kbits/s speed=0.0213x    frame=  458 fps=1.3 q=41.0 size=    9276kB time=00:00:07.60 bitrate=9997.3kbits/s speed=0.0213x    frame=  459 fps=1.3 q=41.0 size=    9276kB time=00:00:07.62 bitrate=9971.0kbits/s speed=0.0213x    frame=  461 fps=1.3 q=41.0 size=    9276kB time=00:00:07.66 bitrate=9919.0kbits/s speed=0.0213x    frame=  462 fps=1.3 q=41.0 size=    9276kB time=00:00:07.68 bitrate=9893.2kbits/s speed=0.0213x    frame=  464 fps=1.3 q=41.0 size=    9276kB time=00:00:07.72 bitrate=9841.9kbits/s speed=0.0213x    frame=  465 fps=1.3 q=41.0 size=    9276kB time=00:00:07.74 bitrate=9816.5kbits/s speed=0.0213x    frame=  466 fps=1.3 q=41.0 size=   14412kB time=00:00:07.76 bitrate=15212.4kbits/s speed=0.0213x    frame=  467 fps=1.3 q=41.0 size=   14412kB time=00:00:07.78 bitrate=15173.3kbits/s speed=0.0213x    frame=  468 fps=1.3 q=41.0 size=   14412kB time=00:00:07.80 bitrate=15134.4kbits/s speed=0.0212x    frame=  469 fps=1.3 q=41.0 size=   14412kB time=00:00:07.82 bitrate=15095.7kbits/s speed=0.0213x    frame=  470 fps=1.3 q=41.0 size=   14412kB time=00:00:07.84 bitrate=15057.2kbits/s speed=0.0213x    frame=  473 fps=1.3 q=41.0 size=   14412kB time=00:00:07.90 bitrate=14942.9kbits/s speed=0.0212x    frame=  474 fps=1.3 q=41.0 size=   14412kB time=00:00:07.92 bitrate=14905.1kbits/s speed=0.0212x    frame=  475 fps=1.3 q=41.0 size=   14412kB time=00:00:07.94 bitrate=14867.6kbits/s speed=0.0212x    frame=  478 fps=1.3 q=41.0 size=   14412kB time=00:00:08.00 bitrate=14756.1kbits/s speed=0.0213x    frame=  479 fps=1.3 q=41.0 size=   14412kB time=00:00:08.02 bitrate=14719.3kbits/s speed=0.0212x    frame=  480 fps=1.3 q=41.0 size=   14412kB time=00:00:08.04 bitrate=14682.7kbits/s speed=0.0212x    frame=  482 fps=1.3 q=41.0 size=   14412kB time=00:00:08.08 bitrate=14610.0kbits/s speed=0.0213x    frame=  483 fps=1.3 q=41.0 size=   14412kB time=00:00:08.10 bitrate=14573.9kbits/s speed=0.0213x    frame=  485 fps=1.3 q=41.0 size=   14412kB time=00:00:08.14 bitrate=14502.3kbits/s speed=0.0213x    frame=  486 fps=1.3 q=41.0 size=   14412kB time=00:00:08.16 bitrate=14466.8kbits/s speed=0.0212x    frame=  487 fps=1.3 q=41.0 size=   14412kB time=00:00:08.18 bitrate=14431.4kbits/s speed=0.0212x    frame=  489 fps=1.3 q=41.0 size=   14412kB time=00:00:08.22 bitrate=14361.2kbits/s speed=0.0213x    frame=  490 fps=1.3 q=41.0 size=   14412kB time=00:00:08.24 bitrate=14326.4kbits/s speed=0.0213x    frame=  491 fps=1.3 q=41.0 size=   14412kB time=00:00:08.26 bitrate=14291.7kbits/s speed=0.0213x    frame=  492 fps=1.3 q=41.0 size=   14412kB time=00:00:08.28 bitrate=14257.2kbits/s speed=0.0213x    frame=  493 fps=1.3 q=41.0 size=   14412kB time=00:00:08.30 bitrate=14222.8kbits/s speed=0.0213x    frame=  494 fps=1.3 q=41.0 size=   14412kB time=00:00:08.32 bitrate=14188.6kbits/s speed=0.0212x    frame=  495 fps=1.3 q=41.0 size=   14412kB time=00:00:08.34 bitrate=14154.6kbits/s speed=0.0212x    frame=  496 fps=1.3 q=41.0 size=   14412kB time=00:00:08.36 bitrate=14120.7kbits/s speed=0.0212x    frame=  498 fps=1.3 q=41.0 size=   14412kB time=00:00:08.40 bitrate=14053.5kbits/s speed=0.0212x    frame=  499 fps=1.3 q=41.0 size=   14412kB time=00:00:08.42 bitrate=14020.1kbits/s speed=0.0212x    frame=  500 fps=1.3 q=41.0 size=   14412kB time=00:00:08.44 bitrate=13986.9kbits/s speed=0.0213x    frame=  500 fps=1.1 q=-1.0 Lsize=   18137kB time=00:00:09.94 bitrate=14946.4kbits/s speed=0.0213x    
video:18133kB audio:0kB subtitle:0kB other streams:0kB global headers:0kB muxing overhead: 0.025873%
bench: utime=1806.304s
bench: maxrss=3284728kB
[libx264 @ 0x410a1c0] frame I:2     Avg QP:32.48  size:596712
[libx264 @ 0x410a1c0] frame P:114   Avg QP:42.29  size: 76286
[libx264 @ 0x410a1c0] frame B:384   Avg QP:44.86  size: 22597
[libx264 @ 0x410a1c0] consecutive B-frames:  0.4%  0.0%  1.2% 60.0% 30.0%  8.4%  0.0%  0.0%  0.0%
[libx264 @ 0x410a1c0] mb I  I16..4: 10.9% 80.4%  8.7%
[libx264 @ 0x410a1c0] mb P  I16..4:  1.2%  5.2%  0.1%  P16..4: 41.1%  6.2%  6.9%  0.0%  0.0%    skip:39.4%
[libx264 @ 0x410a1c0] mb B  I16..4:  0.0%  0.2%  0.0%  B16..8: 44.9%  2.8%  0.3%  direct: 0.5%  skip:51.4%  L0:45.4% L1:53.6% BI: 0.9%
[libx264 @ 0x410a1c0] final ratefactor: 33.12
[libx264 @ 0x410a1c0] 8x8 transform intra:80.9% inter:84.4%
[libx264 @ 0x410a1c0] direct mvs  spatial:99.2% temporal:0.8%
[libx264 @ 0x410a1c0] coded y,uvDC,uvAC intra: 45.3% 52.7% 19.9% inter: 3.3% 4.0% 0.1%
[libx264 @ 0x410a1c0] i16 v,h,dc,p: 34% 21%  7% 37%
[libx264 @ 0x410a1c0] i8 v,h,dc,ddl,ddr,vr,hd,vl,hu:  7%  4%  3% 12% 16% 16% 16% 14% 12%
[libx264 @ 0x410a1c0] i4 v,h,dc,ddl,ddr,vr,hd,vl,hu:  7%  4%  1% 12% 15% 16% 16% 13% 16%
[libx264 @ 0x410a1c0] i8c dc,h,v,p: 42% 18% 19% 21%
[libx264 @ 0x410a1c0] Weighted P-Frames: Y:1.8% UV:0.9%
[libx264 @ 0x410a1c0] ref P L0: 53.7%  8.2% 12.5%  4.0%  3.6%  3.1%  3.2%  1.7%  1.5%  1.2%  1.1%  1.1%  1.3%  1.4%  1.6%  1.1%
[libx264 @ 0x410a1c0] ref B L0: 93.1%  3.4%  1.3%  0.5%  0.3%  0.3%  0.3%  0.1%  0.1%  0.1%  0.1%  0.1%  0.1%  0.1%  0.1%
[libx264 @ 0x410a1c0] ref B L1: 98.9%  1.1%
[libx264 @ 0x410a1c0] kb/s:14853.78
